<?xml version="1.0" standalone="no"?>
<!DOCTYPE svg PUBLIC "-//W3C//DTD SVG 20010904//EN"
 "http://www.w3.org/TR/2001/REC-SVG-20010904/DTD/svg10.dtd">
<svg version="1.0" xmlns="http://www.w3.org/2000/svg"
 width="120.000000pt" height="120.000000pt" viewBox="0 0 120.000000 120.000000"
 preserveAspectRatio="xMidYMid meet">
<metadata>
Created by potrace 1.10, written by Peter Selinger 2001-2011
</metadata>
<g transform="translate(0.000000,120.000000) scale(0.100000,-0.100000)"
fill="#000000" stroke="none">
<path d="M457 1175 c-55 -21 -112 -65 -142 -110 -33 -51 -52 -112 -39 -125 6
-6 47 -15 93 -20 87 -11 111 -5 111 29 1 21 29 55 57 70 31 16 89 14 123 -4
30 -16 35 -26 44 -106 l5 -46 -72 -7 c-271 -26 -386 -117 -387 -305 0 -164 97
-251 268 -239 73 5 130 29 185 77 l33 29 47 -54 c27 -30 52 -54 57 -54 17 0
150 120 150 135 0 8 -13 36 -30 62 l-30 47 0 197 c0 216 -9 286 -43 336 -41
61 -137 109 -202 101 -27 -3 -21 -8 60 -48 78 -39 93 -51 115 -90 23 -43 25
-54 30 -280 5 -228 6 -236 30 -278 l25 -43 -42 -39 c-23 -22 -51 -40 -61 -40
-11 0 -32 16 -46 35 -40 52 -66 54 -126 10 -113 -83 -250 -86 -333 -8 -72 69
-61 239 19 315 45 42 114 67 231 84 135 20 153 33 153 112 0 95 -53 152 -142
152 -57 0 -108 -27 -137 -72 -22 -35 -28 -38 -70 -38 -73 0 -81 11 -51 66 27
51 70 85 150 115 29 11 63 27 74 35 19 13 17 14 -24 13 -25 0 -62 -7 -83 -14z"/>
<path d="M555 751 c-132 -59 -157 -237 -43 -305 55 -33 121 -15 176 48 38 43
52 91 52 177 0 51 -4 70 -18 82 -25 23 -115 22 -167 -2z m147 -87 c-6 -111
-44 -178 -109 -190 -76 -14 -119 35 -111 126 5 54 25 83 73 107 27 15 118 33
140 28 6 -1 9 -30 7 -71z"/>
<path d="M1039 319 c-107 -16 -120 -51 -16 -43 99 9 106 0 74 -96 -25 -76 -22
-93 10 -57 46 50 80 154 59 181 -14 17 -66 24 -127 15z"/>
<path d="M34 309 c-11 -19 119 -136 207 -186 41 -23 110 -54 154 -69 110 -38
272 -40 385 -5 89 28 171 68 225 111 83 66 70 90 -27 48 -236 -100 -470 -107
-687 -22 -57 23 -159 77 -228 121 -17 11 -23 11 -29 2z m364 -190 c133 -30
300 -28 435 6 34 9 71 18 82 21 11 2 -1 -7 -27 -21 -185 -99 -409 -96 -597 7
-82 45 -85 52 -8 23 37 -14 89 -30 115 -36z"/>
</g>
</svg>
